<?xml version="1.0" standalone="no"?>
<!DOCTYPE svg PUBLIC "-//W3C//DTD SVG 20010904//EN"
 "http://www.w3.org/TR/2001/REC-SVG-20010904/DTD/svg10.dtd">
<svg version="1.0" xmlns="http://www.w3.org/2000/svg"
 width="256.000000pt" height="256.000000pt" viewBox="0 0 256.000000 256.000000"
 preserveAspectRatio="xMidYMid meet">

<g transform="translate(0.000000,256.000000) scale(0.100000,-0.100000)"
fill="#f5f5f5" stroke="none">
<path d="M1170 2544 c-72 -19 -133 -56 -200 -120 -99 -95 -150 -209 -150 -339
l0 -60 -171 -170 c-94 -94 -177 -182 -185 -197 -30 -58 -10 -136 46 -175 17
-12 134 -29 449 -65 233 -27 425 -49 426 -51 1 -1 25 -95 53 -208 l51 -205
-164 -393 c-107 -253 -165 -405 -165 -427 0 -127 158 -181 237 -80 10 13 66
137 123 275 58 138 107 251 110 251 4 0 55 -117 114 -259 121 -291 142 -321
228 -321 69 0 128 62 128 135 0 25 -56 171 -171 447 -166 396 -174 418 -229
640 l-58 229 26 24 c14 14 72 64 128 112 170 147 172 158 55 370 -60 108 -85
163 -92 204 -24 149 -105 263 -243 344 -90 52 -235 69 -346 39z m206 -273 c56
-26 92 -66 109 -126 27 -89 2 -166 -71 -221 -31 -24 -48 -29 -108 -32 -59 -2
-77 1 -110 20 -69 41 -69 49 6 125 36 38 71 78 77 90 16 31 14 96 -4 119 -8
10 -15 25 -15 32 0 18 68 15 116 -7z m-341 -583 c10 -9 -77 -4 -134 8 l-24 5
33 34 33 34 41 -36 c23 -20 46 -40 51 -45z"/>
</g>
</svg>
